<svg width="400" height="400" viewBox="0 0 400 400" fill="none" xmlns="http://www.w3.org/2000/svg">
<path d="M257.819 235.419H256.984C250.773 235.419 245.134 234.76 240.065 233.441C234.968 232.094 230.5 230.336 226.662 228.168C222.824 226 219.646 223.656 217.126 221.137C214.577 218.588 212.746 216.112 211.633 213.71L218.005 211.425C219.265 213.095 220.993 214.765 223.19 216.435C225.358 218.075 228.039 219.569 231.232 220.917C234.426 222.265 238.146 223.349 242.395 224.169C246.643 224.96 251.477 225.355 256.896 225.355H257.907C263.327 225.355 268.176 224.96 272.453 224.169C276.701 223.349 280.422 222.265 283.615 220.917C286.809 219.569 289.519 218.075 291.745 216.435C293.972 214.765 295.729 213.095 297.019 211.425L303.215 213.71C302.072 216.112 300.241 218.588 297.722 221.137C295.202 223.656 292.023 226 288.186 228.168C284.348 230.336 279.895 232.094 274.826 233.441C269.729 234.76 264.06 235.419 257.819 235.419Z" fill="#2008FC"/>
<path d="M92 225V157.6H100.2V182.7C102.4 180.9 104.967 179.433 107.9 178.3C110.9 177.167 114.367 176.6 118.3 176.6C124.033 176.6 128.333 178 131.2 180.8C134.067 183.6 135.5 188 135.5 194V225H127.3V194.3C127.3 190.167 126.367 187.3 124.5 185.7C122.7 184.033 119.7 183.2 115.5 183.2C112.833 183.2 110.067 183.8 107.2 185C104.4 186.133 102.067 187.633 100.2 189.5V225H92ZM149.031 246.6V177.6H156.031L156.631 182.6C158.831 180.533 161.231 179.033 163.831 178.1C166.498 177.1 169.598 176.6 173.131 176.6C179.798 176.6 185.031 178.467 188.831 182.2C192.631 185.867 194.531 192 194.531 200.6C194.531 209.133 192.631 215.5 188.831 219.7C185.031 223.9 179.765 226 173.031 226C166.831 226 161.565 224.5 157.231 221.5V246.6H149.031ZM170.831 219.4C176.165 219.4 180.065 217.9 182.531 214.9C185.065 211.833 186.331 207.067 186.331 200.6C186.331 194.4 185.165 189.967 182.831 187.3C180.498 184.567 176.565 183.2 171.031 183.2C168.298 183.2 165.765 183.667 163.431 184.6C161.098 185.533 159.031 186.967 157.231 188.9V214.7C158.898 216.167 160.865 217.333 163.131 218.2C165.398 219 167.965 219.4 170.831 219.4Z" fill="#2008FC"/>
<path d="M304.285 168.679V176.325H260.428V168.679H304.285ZM286.443 150.002V196.584H278.313V150.002H286.443Z" fill="#7308FC"/>
</svg>
